<svg xmlns="http://www.w3.org/2000/svg" width="30" height="30" viewBox="0 0 30 30">
  <metadata><?xpacket begin="﻿" id="W5M0MpCehiHzreSzNTczkc9d"?>
<x:xmpmeta xmlns:x="adobe:ns:meta/" x:xmptk="Adobe XMP Core 5.6-c142 79.160924, 2017/07/13-01:06:39        ">
   <rdf:RDF xmlns:rdf="http://www.w3.org/1999/02/22-rdf-syntax-ns#">
      <rdf:Description rdf:about=""/>
   </rdf:RDF>
</x:xmpmeta>
                                                                                                    
                                                                                                    
                                                                                                    
                                                                                                    
                                                                                                    
                                                                                                    
                                                                                                    
                                                                                                    
                                                                                                    
                                                                                                    
                                                                                                    
                                                                                                    
                                                                                                    
                                                                                                    
                                                                                                    
                                                                                                    
                                                                                                    
                                                                                                    
                                                                                                    
                                                                                                    
                           
<?xpacket end="w"?></metadata>
<defs>
    <style>
      .cls-1 {
        fill: #fff;
        fill-rule: evenodd;
        opacity: 0.5;
      }
    </style>
  </defs>
  <path id="FB" class="cls-1" d="M519,925a15,15,0,1,0,15,15A15,15,0,0,0,519,925Zm3.97,9.148c-0.5-.008-1,0-1.493,0a0.986,0.986,0,0,0-1.1,1c-0.033.526-.008,1.054-0.021,1.581,0,0.188.107,0.176,0.232,0.175,0.756,0,1.513.007,2.27,0,0.222,0,.3.048,0.269,0.281-0.1.88-.177,1.761-0.252,2.644a0.225,0.225,0,0,1-.287.234c-0.6-.009-1.194,0-1.791,0-0.429,0-.388-0.064-0.388.373,0,2.748,0,5.5.006,8.244,0,0.289-.073.362-0.36,0.356q-1.538-.027-3.076,0c-0.289.006-.336-0.092-0.334-0.349,0.011-1.384,0-2.768,0-4.152,0-1.4,0-2.807,0-4.211,0-.237-0.065-0.312-0.3-0.3-0.438.015-.876,0-1.314,0.008a0.192,0.192,0,0,1-.241-0.234q0.014-1.314,0-2.627a0.177,0.177,0,0,1,.219-0.22c0.448,0.01.9-.013,1.344,0.009,0.259,0.013.313-.079,0.307-0.32q-0.022-1,0-2a3.839,3.839,0,0,1,.722-2.236,3.107,3.107,0,0,1,2.492-1.267c1.034-.045,2.071-0.02,3.106-0.03a0.154,0.154,0,0,1,.187.189q-0.007,1.327,0,2.657A0.167,0.167,0,0,1,522.97,934.148Z" transform="translate(-504 -925)"/>
</svg>
