<svg id="f03b23f9-84f3-4178-af9c-af5f6a111a43" data-name="Calque 1" xmlns="http://www.w3.org/2000/svg" viewBox="0 0 105.24 135"><title>Fire-security ICON</title><path d="M293.1,208.1v19s8.5,10.2,36.8,10.2c0,0,8.2,46.7-36.8,69.8,0,0-30.2-14.5-34.8-42.5H244.6s2.3,35.3,48.3,58.4c0,0,59.3-17.1,51.4-102.8C344.4,220.2,310.6,228.8,293.1,208.1Z" transform="translate(-239.78 -188)"/><path d="M258.8,188s23.3,6.4,29,29.1-5.2,40.7-10.2,41c0,0,4.9-17.7-3.5-26.8,0,0-4.1,24.5-9.5,26s-7.2-11.2-8.2-19.8c0,0-4.8,1.1-5.6,14.9a5.78,5.78,0,0,1-1.4,3.4c-1.7,2-4.7,4.5-6.9-.2,0,0-11.5-33.2,12.8-51.8,0,0,2,12.4,8.3,12.7a1,1,0,0,0,1-.8C265.1,212.5,265.8,200.8,258.8,188Z" transform="translate(-239.78 -188)"/></svg>