<svg id="167b2200-6c52-452a-86d1-79e6fb187cb0" data-name="f458c350-d310-4a30-bc4a-da88df4ad52f" xmlns="http://www.w3.org/2000/svg" viewBox="0 0 49.95 45"><title>icon_public-infra</title><path d="M47.3,39.9a.66.66,0,0,1,.5-.74,3.06,3.06,0,0,0,2.11-2.87,19.06,19.06,0,0,0,0-2.39,3.24,3.24,0,0,0-6.43-.14,20.92,20.92,0,0,0,0,2.24,3.23,3.23,0,0,0,2.27,3.2.61.61,0,0,1,.38.34v3.8H41.38V22.44a.84.84,0,0,0-.66-1h0C39.12,21,37.59,20.44,36,20h-.12a.81.81,0,0,1-.62-1V0L22,2.59V0C17.85.83,13.76,1.66,9.66,2.55H9.45a.84.84,0,0,0-.64,1V43.44H3.91v-3.3a.84.84,0,0,1,.62-1,2.88,2.88,0,0,0,2-2.42,15,15,0,0,0,0-3,2.93,2.93,0,0,0-2.17-2.58A3.09,3.09,0,0,0,1,31.91c-1.36,1.33-1.38,5.14,0,6.46A10.08,10.08,0,0,0,2.7,39.44v4H.2V45H49.93V43.42H47.3ZM16.92,4.9h2.43V7.61H16.92Zm0,4.8h2.5v2.71h-2.5Zm2.48,4.73h0V17.1H16.91V14.44ZM16.9,24h2.47v2.7H16.9ZM11.53,4.91h2.4V7.64h-2.4Zm0,4.81h2.4v2.7h-2.4Zm2.4,31.19h-2.4V38.17h2.4ZM11.52,26.7V24h2.42v2.7Zm2.41,9.48h-2.4V33.49h2.4Zm0-4.74h-2.4v-2.7H14Zm0-9.44h0c-.73,0-1.37.05-2,0a.66.66,0,0,1-.46-.44V19.23h2.47Zm0-4.87H11.52V14.44H14Zm2.92,11.6h2.48v2.71H16.88Zm2.5,12.14H16.91v-2.7h2.47Zm0-7.35v2.63H16.89V33.49h2.49Zm.07-11.88A.56.56,0,0,1,19,22h-2.1V19.23h2.49ZM30.13,26.7V24h2.46v2.7Zm2.43,2v2.7H30.14V28.74ZM30.14,12.4V9.7H32.6v2.7Zm2.45,2v2.72H30.13V14.44h2.46ZM30.11,4.94h2.46V7.61H30.11Zm-5.37,0h2.47V7.63H24.74Zm0,4.79h2.47v2.72H24.74Zm0,4.74h2.45v2.72H24.74Zm2.45,26.44H24.75v-2.7h2.44Zm0-4.68H24.73V33.51h2.48Zm-2.46-4.8V28.74h2.44V31.4Zm2.46-4.7H24.73V24h2.48Zm0-4.76H24.78V19.23h2.45Zm5.35,18.94H30.12V38.2h2.47Zm0-7.36V36.2H30.13V33.51h2.46ZM32.63,22H30.17V19.23h2.46Zm4,2.05H39v2.7H36.59Zm2.49,4.74V31.4H36.63V28.74Zm0,12.15H36.64v-2.7H39Zm0-7.37V36.2h-2.5V33.51h2.46Z" transform="translate(0)"/></svg>