<svg id="dc64df27-d45e-495b-b9f4-ae3d6e3f5bbe" data-name="Layer 1" xmlns="http://www.w3.org/2000/svg" viewBox="0 0 280.8 370.4"><title>icon_manufacturing</title><path d="M99.4,234.2A25.2,25.2,0,1,0,74.2,209a25.22,25.22,0,0,0,25.2,25.2Zm0-38.4A13.2,13.2,0,1,1,86.2,209a13.21,13.21,0,0,1,13.2-13.2Zm0,0" transform="translate(41 85)"/><path d="M233.8-2.6a6,6,0,0,0,6-6v-64A12.41,12.41,0,0,0,227.4-85H201.8a12.41,12.41,0,0,0-12.4,12.4v1.68a18.73,18.73,0,0,0-6.8-1.28,18.73,18.73,0,0,0-6.8,1.28V-72.6A12.41,12.41,0,0,0,163.4-85H93a6,6,0,0,0-6,6v.4H58.5c-9.45,0-17.56,6.44-21,15.57L-19.42,57.5c0,.06,0,.11-.07.17a25.14,25.14,0,0,0,3.41,26.49l1,1.41c-1,2.82-7.22,21.23-2.78,45.32,7.52,40.84,39.61,66.76,66.5,81.68v16h-58a18.82,18.82,0,0,0-18.8,18.8v26H-35a6,6,0,0,0-6,6,6,6,0,0,0,6,6H233.8a6,6,0,1,0,0-12H227v-26a18.82,18.82,0,0,0-18.8-18.8h-58V209a50.86,50.86,0,0,0-50.8-50.8c-1.35,0-2.69.07-4,.17L30.46,63.15,59-28.2H87v.4a6,6,0,0,0,6,6h70.4a12.41,12.41,0,0,0,12.4-12.4v-1.68a18.52,18.52,0,0,0,6.8,1.28,18.52,18.52,0,0,0,6.8-1.28V-8.6a6,6,0,0,0,6,6h.4V11h-.4a6,6,0,0,0-6,6V42.6a6,6,0,0,0,6,6h1.71l5.27,21.06a6,6,0,0,0,5.82,4.54h.4V96.69a11.6,11.6,0,1,0,12,0V74.2h.4a6,6,0,0,0,5.82-4.54l5.27-21.06h1.71a6,6,0,0,0,6-6V17a6,6,0,0,0-6-6h-.4V-2.6Zm-32.4-70a.4.4,0,0,1,.4-.4h25.6a.4.4,0,0,1,.4.4v58H201.4Zm-154,41.2L21.71,50.92A25.1,25.1,0,0,0,3.4,43a25.28,25.28,0,0,0-2.77.16l39-82.56a24,24,0,0,0,7.81,8ZM-9.8,68.2a13.2,13.2,0,0,1,26.4,0v0A13.22,13.22,0,0,1,3.4,81.4,13.21,13.21,0,0,1-9.8,68.2ZM-6,129.31a84,84,0,0,1-.15-30.56l59.94,87.9a50.41,50.41,0,0,0-4.26,12.63C18,180.62-.66,157.12-6,129.31ZM208.2,240.6a6.81,6.81,0,0,1,6.8,6.8v26H-16.2v-26a6.81,6.81,0,0,1,6.8-6.8h58v13.2a6,6,0,0,0,6,6h89.6a6,6,0,0,0,6-6V240.6Zm-70-31.6v38.8H60.6V209a38.8,38.8,0,1,1,77.6,0ZM61,175.85,4.71,93.37A25.25,25.25,0,0,0,26.4,78.48L82.68,161A50.91,50.91,0,0,0,61,175.85ZM58.5-40.2c-5.9,0-10.7-5.92-10.7-13.2s4.8-13.2,10.7-13.2H87v7.2H61a6,6,0,0,0-6,6,6,6,0,0,0,6,6H87v7.2Zm105.3,6a.4.4,0,0,1-.4.4H99V-73h64.4a.4.4,0,0,1,.4.4Zm18.8-12.4a6.81,6.81,0,0,1-6.8-6.8,6.81,6.81,0,0,1,6.8-6.8,6.81,6.81,0,0,1,6.8,6.8,6.81,6.81,0,0,1-6.8,6.8ZM227.8,23V36.6H201.4V23ZM216.32,62.2h-3.43l-3.41-13.6h10.23ZM221.4,11H207.8V-2.6h13.6Zm0,0" transform="translate(41 85)"/></svg>