<svg id="6fd206e2-ac72-404f-891a-2c5d31b7d577" data-name="Layer 1" xmlns="http://www.w3.org/2000/svg" viewBox="0 0 212.71 240.12"><title>icon_energy</title><path d="M18.6,100.1A80.87,80.87,0,0,1,69.21,25.19L84.33-5.19A106.36,106.36,0,0,0,70.69,202.53l2.91-25.88a80.91,80.91,0,0,1-55-76.55Zm0,0" transform="translate(7 20)"/><path d="M205.71,100.1A106.55,106.55,0,0,0,128.05-2.32l-3,25.86A80.77,80.77,0,0,1,130,174.81l-15.54,30.57A106.52,106.52,0,0,0,205.71,100.1Zm0,0" transform="translate(7 20)"/><path d="M160.23,87.21a5.92,5.92,0,0,0-5.7-8.71H105.87l10.48-91.06a6.76,6.76,0,0,0-4.54-7.17A6.63,6.63,0,0,0,110-20a6.38,6.38,0,0,0-5.7,3.55L38.46,115.77a7,7,0,0,0,.28,6.51,6.8,6.8,0,0,0,5.45,3.42h48l-9.84,87.64a6.05,6.05,0,0,0,4.52,6.54,6.13,6.13,0,0,0,1.84.24,6.44,6.44,0,0,0,5.71-3.51Zm0,0" transform="translate(7 20)"/></svg>