<svg id="3cef567c-f612-4436-a50e-3ea99c0c0382" data-name="26bf9c9f-50d6-41e8-84a9-1995f46f4dac" xmlns="http://www.w3.org/2000/svg" viewBox="0 0 35 41.62"><defs><style>.c80cf339-def9-4489-bf86-303122938e03{fill:#8a8a8a;}</style></defs><title>icon_electronics-communication</title><path class="c80cf339-def9-4489-bf86-303122938e03" d="M11.4,30.27a83.89,83.89,0,0,1-8.51-.95h-1L0,41.62H19.86S15.43,30.41,11.4,30.27Z" transform="translate(0 0)"/><path class="c80cf339-def9-4489-bf86-303122938e03" d="M26.51,14.19s-.07-3.83-1.89-4.73A41,41,0,0,0,18,7.57l5.68,12.29Z" transform="translate(0 0)"/><path class="c80cf339-def9-4489-bf86-303122938e03" d="M5.68,17c-2.42,1.11-3.82,5.45-1.9,8.54s7.57.95,7.57.95c6,7.05,16.08,4.72,16.08,4.72L11.35,0C4.16,2.37,5.68,17,5.68,17Z" transform="translate(0 0)"/><path class="c80cf339-def9-4489-bf86-303122938e03" d="M31.69,5.68h0A3.31,3.31,0,1,0,35,9,3.31,3.31,0,0,0,31.68,5.68Z" transform="translate(0 0)"/></svg>