<svg xmlns="http://www.w3.org/2000/svg" width="30" height="30" viewBox="0 0 30 30">
  <metadata><?xpacket begin="﻿" id="W5M0MpCehiHzreSzNTczkc9d"?>
<x:xmpmeta xmlns:x="adobe:ns:meta/" x:xmptk="Adobe XMP Core 5.6-c142 79.160924, 2017/07/13-01:06:39        ">
   <rdf:RDF xmlns:rdf="http://www.w3.org/1999/02/22-rdf-syntax-ns#">
      <rdf:Description rdf:about=""/>
   </rdf:RDF>
</x:xmpmeta>
                                                                                                    
                                                                                                    
                                                                                                    
                                                                                                    
                                                                                                    
                                                                                                    
                                                                                                    
                                                                                                    
                                                                                                    
                                                                                                    
                                                                                                    
                                                                                                    
                                                                                                    
                                                                                                    
                                                                                                    
                                                                                                    
                                                                                                    
                                                                                                    
                                                                                                    
                                                                                                    
                           
<?xpacket end="w"?></metadata>
<defs>
    <style>
      .cls-1 {
        fill: #fff;
        fill-rule: evenodd;
        opacity: 0.5;
      }
    </style>
  </defs>
  <path id="Linkedin" class="cls-1" d="M559,925a15,15,0,1,0,15,15A15,15,0,0,0,559,925Zm-5.156,7.5a1.406,1.406,0,1,1-1.407,1.406A1.406,1.406,0,0,1,553.844,932.5Zm1.417,13.111h-2.808v-9.363h2.808v9.363Zm11.246,0H563.7V940.5c0-1.046-.3-2.1-1.536-2.1a2.231,2.231,0,0,0-2.215,2.123v5.079h-2.819v-9.395h2.819v1.3a4.218,4.218,0,0,1,3.448-1.6c1.364,0,3.112.681,3.112,4.373v5.313Z" transform="translate(-544 -925)"/>
</svg>
