<svg id="b2f051a5-024c-4594-b81c-ad6e980a3780" data-name="Isolation Mode" xmlns="http://www.w3.org/2000/svg" viewBox="0 0 520.72 170.08"><defs><style>.\30 fb35f58-9202-481b-a095-9e310f266fe6{fill:#ed1c29;}</style></defs><title>logo</title><g id="e651f6f1-bb43-4415-827a-0de7e4112390" data-name="WECO Logo"><path class="0fb35f58-9202-481b-a095-9e310f266fe6" d="M539.8,335.91A18.21,18.21,0,1,0,558,354.12,18.21,18.21,0,0,0,539.8,335.91Zm0,34.58a16.34,16.34,0,1,1,16.33-16.34A16.34,16.34,0,0,1,539.76,370.49Zm7.07-16.9a6.2,6.2,0,0,0,1.21-3.87,5.53,5.53,0,0,0-1.72-4.34,6.91,6.91,0,0,0-4.86-1.57h-8.8v20.64h2.54v-8.57H541l4.85,8.57h2.91l-5.3-8.89A5.35,5.35,0,0,0,546.83,353.59Zm-11.63.08v-7.61h6a4.78,4.78,0,0,1,3.19.94,3.42,3.42,0,0,1,1.11,2.75,3.81,3.81,0,0,1-1.09,2.89,4.36,4.36,0,0,1-3.1,1Z" transform="translate(-37.28 -335.91)"/><path class="0fb35f58-9202-481b-a095-9e310f266fe6" d="M447.45,335.91H122.32a85,85,0,1,0,0,170.07H447.45a85,85,0,1,0,0-170.07Zm0,143.17H122.32a58.14,58.14,0,1,1,0-116.27H447.45a58.14,58.14,0,0,1,0,116.27Z" transform="translate(-37.28 -335.91)"/><path class="0fb35f58-9202-481b-a095-9e310f266fe6" d="M419.89,386.73a33.37,33.37,0,1,0,33.37,33.36A33.35,33.35,0,0,0,419.89,386.73Zm0,60.89c-9.79,0-17.75-12.32-17.75-27.53s8-27.55,17.75-27.55,17.75,12.34,17.75,27.55S429.7,447.62,419.89,447.62Z" transform="translate(-37.28 -335.91)"/><path class="0fb35f58-9202-481b-a095-9e310f266fe6" d="M371,439.38c-5.92,9.35-20.11,14.08-32,14.08a33.36,33.36,0,0,1-33.37-33.37c0-18.43,15.23-33.82,33.37-33.36,11.06.27,15.12,3.6,18.64,3.6,6.07,0,12.67-3.38,12.67-3.38l0,27.71c-5.4-8.87-16-22.52-29.54-21.74-9.94.57-17.5,11.78-17.83,27.17-.32,15.14,7.47,26.94,17.76,27.53a32,32,0,0,0,26.11-11.17Z" transform="translate(-37.28 -335.91)"/><path class="0fb35f58-9202-481b-a095-9e310f266fe6" d="M263.07,418.83c5.47-.06,4.41-6.83,4.71-9.78h4.48v24.26l-4.52.05h0c0-1.41.63-10.23-4.76-10.12H248.35v23.63h23.34c12.48.08,19-15.76,19-15.76v21.21H225.18l0-5.45h6.92V393.69h-6.32l0-5.41h65.11v20.13s-5.48-14.3-16.94-14.72H248.35v25.14Z" transform="translate(-37.28 -335.91)"/><polygon class="0fb35f58-9202-481b-a095-9e310f266fe6" points="138.03 52.37 138.05 57.78 132.84 57.78 147.22 90.67 162.29 57.78 154.28 57.78 154.28 52.37 176.42 52.37 176.41 57.78 169.31 57.78 141.59 117.29 122.96 75.74 103.71 117.29 77.25 57.78 71.33 57.78 71.37 52.39 101.12 52.37 101.08 57.78 94.58 57.78 109.77 91.76 119.72 68.39 115.11 57.78 110.4 57.78 110.42 52.37 138.03 52.37"/></g></svg>